<svg width="1047" height="900" viewBox="0 0 1047 900" fill="none" xmlns="http://www.w3.org/2000/svg">
<path d="M437 339.5C607 218.7 688.167 56.5 707.5 -9.5L895.5 -92.5C1010.17 -77.8333 1244.4 -40.7 1264 -9.5C1288.5 29.5 1230 119.5 1159 127C1088 134.5 912.5 339.5 854 403C795.5 466.5 788 781 637 825C486 869 307.5 805.5 271 710.5C234.5 615.5 224.5 490.5 437 339.5Z" fill="#FF7200" fill-opacity="0.27"/>
<path d="M297.15 356.797C568.042 184.882 697.379 -45.9519 728.186 -139.879L1027.76 -258C1210.48 -237.127 1583.72 -184.281 1614.96 -139.879C1654 -84.3767 1560.78 43.706 1447.64 54.3796C1334.5 65.0531 1054.85 356.797 961.631 447.167C868.412 537.536 856.461 985.114 615.846 1047.73C375.231 1110.35 90.7949 1019.98 32.6329 884.783C-25.529 749.584 -41.4638 571.692 297.15 356.797Z" fill="#FF7200" fill-opacity="0.27"/>
</svg>
